<svg xmlns="http://www.w3.org/2000/svg" viewBox="2 25 598 477">
<g transform="translate(0,554) scale(0.1,-0.1)" fill="#E3A92B"><path d="M1765 5270 l-260 -7 -140 -40 c-166 -48 -204 -62 -395 -152 -55 -26 -119 -65 -184 -110 -120 -83 -315 -271 -387 -371 -63 -88 -119 -174 -119 -183 0 -5 -11 -23 -25 -41 -14 -18 -25 -36 -25 -40 0 -4 -13 -35 -30 -69 -60 -126 -111 -275 -130 -377 -10 -58 -26 -139 -35 -180 -15 -67 -16 -132 -10 -620 3 -300 6 -651 6 -780 1 -354 32 -509 155 -755 113 -228 166 -310 276 -431 196 -216 275 -274 558 -415 174 -86 180 -88 361 -132 l144 -35 607 -6 c443 -4 614 -3 633 6 39 18 48 64 42 217 -5 147 -17 191 -73 263 -50 63 -148 137 -218 163 l-66 25 -451 0 c-422 0 -456 1 -531 21 -173 44 -424 197 -536 326 -123 143 -210 316 -236 471 -17 98 -13 123 22 140 27 13 1014 7 1038 -6 22 -12 28 -24 60 -126 17 -55 55 -116 113 -180 71 -78 248 -179 346 -198 92 -17 1465 -16 1525 1 62 18 163 81 241 151 52 46 76 78 112 147 55 107 71 184 65 303 -7 116 -37 180 -128 270 -77 77 -138 112 -238 135 -69 17 -78 17 -160 1 -145 -29 -267 -111 -352 -238 -60 -90 -72 -143 -79 -356 -5 -168 -8 -185 -26 -198 -16 -12 -57 -14 -222 -12 -178 3 -204 5 -220 21 -15 15 -18 40 -20 185 -3 173 -9 203 -51 287 -73 145 -174 243 -332 318 l-85 41 -420 7 c-362 6 -426 9 -465 24 -25 9 -65 24 -90 32 -184 61 -385 201 -494 346 -66 87 -123 206 -137 287 -18 101 -16 326 4 420 17 81 86 234 142 315 58 83 171 200 238 248 118 82 304 166 419 187 28 6 255 10 508 10 355 0 467 3 502 14 98 29 237 151 281 246 18 38 21 70 25 215 4 159 3 172 -16 195 l-20 25 -379 1 c-208 0 -495 -2 -638 -6z"/><path d="M3220 5253 c-25 -21 -25 -22 -25 -190 0 -214 9 -244 103 -340 45 -45 90 -80 136 -103 l70 -35 510 -5 511 -5 65 -28 c36 -16 80 -33 97 -38 61 -18 194 -96 256 -150 72 -62 201 -203 230 -251 11 -18 27 -44 36 -58 25 -40 82 -181 92 -229 5 -25 10 -81 11 -124 2 -126 42 -117 -501 -116 -251 0 -494 4 -539 8 -98 8 -108 16 -117 100 -10 83 -21 112 -76 196 -98 150 -239 253 -384 280 -95 17 -1291 31 -1391 15 -47 -7 -98 -25 -162 -58 -127 -64 -203 -139 -259 -255 -54 -111 -65 -154 -65 -252 0 -110 14 -159 68 -248 57 -96 130 -161 232 -206 70 -31 86 -34 177 -35 95 0 104 1 178 37 110 52 209 154 269 273 l43 87 5 202 c5 203 8 220 45 247 6 4 87 8 182 8 184 0 197 -3 208 -53 2 -12 6 -107 8 -212 l3 -190 34 -70 c90 -186 181 -273 382 -366 l93 -43 450 -7 450 -7 84 -31 c258 -96 429 -239 533 -448 41 -80 88 -286 88 -381 0 -82 -47 -286 -85 -372 -48 -109 -160 -267 -233 -328 -143 -120 -191 -153 -285 -195 -167 -74 -191 -77 -712 -77 -431 0 -459 -1 -513 -20 -110 -39 -207 -122 -260 -225 l-37 -70 0 -167 c0 -104 4 -171 11 -178 7 -7 221 -11 665 -13 613 -2 657 -1 699 16 44 18 71 27 210 69 68 20 305 135 375 181 253 168 425 343 553 562 58 98 128 237 142 280 7 22 21 60 32 84 11 24 26 86 34 137 15 101 28 144 44 144 7 0 10 281 10 865 0 833 -1 867 -19 893 -12 17 -25 67 -35 135 -8 59 -24 124 -35 145 -10 20 -22 53 -26 72 -17 86 -147 321 -263 480 -112 152 -297 314 -500 437 -69 42 -215 113 -233 113 -8 0 -38 11 -68 25 -55 26 -134 49 -306 91 l-100 25 -585 -3 c-583 -3 -585 -3 -610 -25z"/></g>
</svg>
